<svg version="1.1" id="Layer_1" xmlns="http://www.w3.org/2000/svg" x="0" y="0" width="480.1" height="99.5" xml:space="preserve"><style>.st0{fill:#fff}</style><path class="st0" d="M2.3 27.3c0 3.6-.2 7.3-1.1 10.1h10.1c-.8-2.6-1-5.9-1-9.7V14.2c1.3-1.2 3-1.8 5.3-1.8 3 0 4.1 1.3 4.1 4v11.3c0 3.9-.1 7.1-1 9.7H29c-.9-2.8-1.1-6.5-1.1-10.1V15.5c0-5.9-1.9-9.1-8.2-9.1-4.8 0-8.1 3-9.5 6.7H10V6.6h-.1L0 9.4c1.2 1.4 2.3 4 2.3 7v10.9zM52 38.1c3.3 0 4.9-1.6 5.8-4.1.2-.6.3-1.1.5-2-.3.3-1.3.4-1.6.4-1.9 0-2.9-.7-2.9-3.1V15.9c0-6.4-2.9-9.5-10.8-9.5-6 0-11.9 2.9-11.9 7.2 0 2.1 1.6 3.3 3.3 3.3 2 0 3.1-1.1 3.8-4 .4-2 1.2-2.9 3.2-2.9 3.2 0 4.3 1.7 4.3 5.2v.6c0 3.1-2.4 4.3-6.7 6-4.5 1.8-8.9 3.9-8.9 8.7 0 4.6 3.1 7.5 8 7.5 4 0 6.5-1.7 7.8-5.5h.1c.2 2.9 2.2 5.6 6 5.6zm-6.2-6.5c-.6 1.2-1.4 2-3.7 2-2.4 0-3.8-1.7-3.8-4.3 0-3.2 1-4.8 3.9-6.2 2.2-1.1 3-1.6 3.6-2.5v11zM60 29.2c0 5.7 2.4 8.8 8.6 8.8 3.6 0 6.2-1.6 7.3-4 .4-.9.5-1.5.7-2.6-1 .5-2.1.8-4.3.8-2.9 0-4.2-1.2-4.2-4.4V11.4H75l.8-4.3H68v-7l-.1-.1L57 11.1v.2h3v17.9zM78.3 28.1c0 5.9 2.4 9.9 9 9.9 5.2 0 7.7-2.8 9-6.7h.1v6h9.1c-.7-2.2-1.2-4.4-1.2-9.1V6.9l-9.4 1c1 2.7 1.3 5.3 1.3 8.4v14.2c-1.1 1.5-3 2.3-5.6 2.3-3 0-4.3-1.7-4.3-4.9v-21l-9.4 1c1 2.7 1.3 5.3 1.3 8.4l.1 11.8zM109.3 27.3c0 3.6-.2 7.3-1.1 10.1h10.1c-.7-2.8-1-6.5-1-10.2v-7.5c0-4.6 1.8-7.3 3.4-7.3.7 0 1.1.7 1.8 1.3.6.6 1.5 1.2 2.9 1.2 2.5 0 3.8-1.8 3.8-4.2 0-2.6-1.6-4.2-4.7-4.2-3.4 0-6 2.2-7.3 7.8h-.2V6.6l-.1-.1-9.9 2.9c1.2 1.4 2.3 4 2.3 7v10.9zM154.2 29.3l-.2-.5c-1.4 1.4-3.6 3.4-8.4 3.4-5.3 0-9.2-3-9.2-10.5v-.9h17.8c0-9.4-3.6-14.3-11.5-14.3-8.2 0-14.3 6.7-14.3 16.7 0 9.9 6.4 15 14.2 15 6.6-.1 10.3-4.4 11.6-8.9zm-11.8-19.2c3.4 0 4.1 2.9 4.2 7.7l-10.1.9c.5-5.9 2.5-8.6 5.9-8.6zM44.1 65.9c0-5.9-1.6-9.1-7.9-9.1-4.8 0-7.7 3-9.1 6.7H27c-.4-4.3-2.2-6.7-7.7-6.7-4.8 0-7.8 3-9.1 6.7H10V57h-.1L0 59.8c1.2 1.4 2.3 4 2.3 7v10.9c0 3.6-.2 7.3-1.1 10.1h10.1c-.8-2.6-1-5.9-1-9.7V64.6c1.5-1.4 2.7-1.8 5-1.8 3 0 3.8 1.3 3.8 4v11.3c0 3.9-.1 7.1-1 9.7h10.1c-.9-2.8-1.1-6.5-1.1-10.1V64.6c1.3-1.3 2.7-1.8 5-1.8 3 0 3.8 1.3 3.8 4v11.3c0 3.9-.1 7.1-1 9.7H45c-.9-2.8-1.1-6.5-1.1-10.1V65.9h.2zM70.1 79.7V66.3c0-6.4-2.9-9.5-10.8-9.5-6 0-11.9 2.9-11.9 7.2 0 2.1 1.6 3.3 3.3 3.3 2 0 3.1-1.1 3.8-4 .4-2 1.2-2.9 3.2-2.9 3.2 0 4.3 1.7 4.3 5.2v.6c0 3.1-2.4 4.3-6.7 6-4.5 1.8-8.9 3.9-8.9 8.7 0 4.6 3.1 7.5 8 7.5 4 0 6.5-1.7 7.8-5.5h.1c.1 2.9 2.1 5.5 5.9 5.5 3.3 0 4.9-1.6 5.8-4.1.2-.6.3-1.1.5-2-.3.3-1.3.4-1.6.4-1.8.1-2.8-.6-2.8-3zM62 82c-.6 1.2-1.4 2-3.7 2-2.4 0-3.8-1.7-3.8-4.3 0-3.2 1-4.8 3.9-6.2 2.2-1.1 3-1.6 3.6-2.5v11zM91.3 82.4c-5.3 0-8.6-3.2-8.6-11.1 0-6.8 2.4-10.9 6.3-10.9 2 0 2.7.4 3 2.5.4 2.6 1.4 4 3.5 4 2.4 0 3.7-1.5 3.7-3.8 0-3.2-2.9-6.3-9.9-6.3-7.4 0-14.6 5.9-14.6 16.5 0 9.5 5.5 15.2 13.6 15.2 6.9 0 10.3-4.7 11.2-8.3l-.1-.4c-1.8 1.6-4.8 2.6-8.1 2.6zM127.8 65.9c0-5.9-1.9-9.1-8.2-9.1-4.8 0-7.8 2.9-9.2 6.6h-.2V52.1l.3-8-.1-.1-10.3 2.7c1.2 1.5 2.1 3.6 2.1 7.5v23.4c0 3.6-.2 7.3-1.1 10.1h10.1c-.8-2.6-1-5.9-1-9.7V64.6c1.2-1.2 3-1.8 5.3-1.8 3 0 4.1 1.3 4.1 4v11.3c0 3.9-.1 7.1-1 9.7h10.1c-.9-2.8-1.1-6.5-1.1-10.1V65.9h.2zM141 50.3c0-2.7-2-4.8-4.9-4.8s-4.9 2.1-4.9 4.8c0 2.6 2 4.8 4.9 4.8s4.9-2.2 4.9-4.8zM140.4 64.6l.2-7.6-.1-.1-10.5 2.9c1.2 1.4 2.3 4 2.3 7v10.9c0 3.6-.2 7.3-1.1 10.1h10.4c-.9-2.8-1.1-6.5-1.1-10.1l-.1-13.1zM171 65.9c0-5.9-1.9-9.1-8.2-9.1-4.8 0-8.1 3-9.5 6.7h-.2V57l-.1-.1-9.9 2.9c1.2 1.4 2.3 4 2.3 7v10.9c0 3.6-.2 7.3-1.1 10.1h10.1c-.8-2.6-1-5.9-1-9.7V64.6c1.3-1.2 3-1.8 5.3-1.8 3 0 4.1 1.3 4.1 4v11.3c0 3.9-.1 7.1-1 9.7h10.1c-.9-2.8-1.1-6.5-1.1-10.1V65.9h.2zM199.8 71.1c0-9.4-3.6-14.3-11.5-14.3-8.2 0-14.3 6.7-14.3 16.7 0 9.9 6.4 15 14.2 15 6.7 0 10.4-4.3 11.6-8.8l-.2-.5c-1.4 1.4-3.6 3.4-8.4 3.4-5.3 0-9.2-3-9.2-10.5v-.9l17.8-.1zM188 60.5c3.4 0 4.1 2.9 4.2 7.7l-10.1.8c.5-5.8 2.5-8.5 5.9-8.5zM214.9 55.1c2.9 0 4.9-2.2 4.9-4.8 0-2.7-2-4.8-4.9-4.8s-4.9 2.1-4.9 4.8c0 2.6 2 4.8 4.9 4.8zM219.2 64.6l.2-7.6-.1-.1-10.5 2.9c1.2 1.4 2.3 4 2.3 7v10.9c0 3.6-.2 7.3-1.1 10.1h10.4c-.9-2.8-1.1-6.5-1.1-10.1l-.1-13.1zM249.8 65.9c0-5.9-1.9-9.1-8.2-9.1-4.8 0-8.1 3-9.5 6.7h-.1V57l-.1-.1-9.9 2.9c1.2 1.4 2.3 4 2.3 7v10.9c0 3.6-.2 7.3-1.1 10.1h10.1c-.8-2.6-1-5.9-1-9.7V64.6c1.3-1.2 3-1.8 5.3-1.8 3 0 4.1 1.3 4.1 4v11.3c0 3.9-.1 7.1-1 9.7h10.1c-.9-2.8-1.1-6.5-1.1-10.1l.1-11.8zM263.2 78.3V61.8h6.9l.8-4.3h-7.7v-7.1l-.2-.1-10.9 11.1v.2h3v17.9c0 5.7 2.4 8.8 8.6 8.8 3.6 0 6.2-1.6 7.3-4 .4-.9.5-1.5.7-2.6-1 .5-2.1.8-4.3.8-2.9.3-4.2-1-4.2-4.2zM298.2 71.1c0-9.4-3.6-14.3-11.5-14.3-8.2 0-14.3 6.7-14.3 16.7 0 9.9 6.4 15 14.2 15 6.7 0 10.4-4.3 11.6-8.8l-.2-.5c-1.4 1.4-3.6 3.4-8.4 3.4-5.3 0-9.2-3-9.2-10.5v-.9l17.8-.1zm-11.8-10.6c3.4 0 4.1 2.9 4.2 7.7l-10.1.8c.5-5.8 2.5-8.5 5.9-8.5zM309.8 52.8c0-1.5.1-6 .2-8.7l-.1-.1-10.5 2.9c1.2 1.4 2.3 4 2.3 7v23.9c0 3.6-.2 7.3-1.1 10.1H311c-.9-2.8-1.1-6.5-1.1-10.1l-.1-25zM322.9 52.8c0-1.5.1-6 .2-8.7l-.1-.1-10.5 2.9c1.2 1.4 2.3 4 2.3 7v23.9c0 3.6-.2 7.3-1.1 10.1h10.4c-.9-2.8-1.1-6.5-1.1-10.1l-.1-25zM336.1 64.6l.2-7.6-.1-.1-10.5 2.9c1.2 1.4 2.3 4 2.3 7v10.9c0 3.6-.2 7.3-1.1 10.1h10.4c-.9-2.8-1.1-6.5-1.1-10.1l-.1-13.1zM331.7 55.1c2.9 0 4.9-2.2 4.9-4.8 0-2.7-2-4.8-4.9-4.8s-4.9 2.1-4.9 4.8c.1 2.6 2.1 4.8 4.9 4.8zM365.5 61.1c.5.7 1.1 1.5 2.7 1.5 2 0 3-1.6 3-3.6 0-2.1-1.7-3.5-4.4-3.5-1.7 0-4.5 1.3-5.9 3.9h-.2c-2.1-1.7-5.3-2.6-8.4-2.6-6.5 0-12.4 3.8-12.4 10.9 0 4.1 2.6 7.1 6.1 8.6v.2c-3 .8-5.3 2.9-5.3 6 0 3.2 2.6 5.6 5.5 6.2v.2c-4.2.7-7.7 2.1-7.7 4.8 0 3.1 4 5.8 13.7 5.8 10.4 0 17-4 17-11.4 0-4.8-3-6.9-8-6.9-3.6 0-9.1.3-12.7.3-1.9 0-2.7-.9-2.7-2.1 0-1.1.3-1.8 1.2-2.4 1.6.5 3.4.8 5.2.8 6.5 0 12.4-3.8 12.4-10.9 0-2.4-1.1-4.7-2.7-6.7.4-.3 1-.4 1.5-.4 1.2 0 1.6.7 2.1 1.3zm-18 28.2c1.5-.2 8.8-.5 12.1-.5 2.4 0 3.6.6 3.6 2.5 0 2.6-3.2 4.9-10.9 4.9-5 0-7.1-1.6-7.1-4 0-1.4 1-2.7 2.3-2.9zm5-15c-2.9 0-4.9-2.3-4.9-6.8 0-5.2 1.7-7.2 4.8-7.2 2.9 0 4.9 2.3 4.9 6.8-.1 5.1-1.8 7.2-4.8 7.2z"/><path class="st0" d="M396 71.1c0-9.4-3.6-14.3-11.5-14.3-8.2 0-14.3 6.7-14.3 16.7 0 9.9 6.4 15 14.2 15 6.7 0 10.4-4.3 11.6-8.8l-.2-.5c-1.4 1.4-3.6 3.4-8.4 3.4-5.3 0-9.2-3-9.2-10.5v-.9l17.8-.1zm-11.7-10.6c3.4 0 4.1 2.9 4.2 7.7l-10.2.8c.5-5.8 2.5-8.5 6-8.5zM425 65.9c0-5.9-1.9-9.1-8.2-9.1-4.8 0-8.1 3-9.5 6.7h-.2V57l-.1-.1-9.9 2.9c1.2 1.4 2.3 4 2.3 7v10.9c0 3.6-.2 7.3-1.1 10.1h10.1c-.8-2.6-1-5.9-1-9.7V64.6c1.3-1.2 3-1.8 5.3-1.8 3 0 4.1 1.3 4.1 4v11.3c0 3.9-.1 7.1-1 9.7h10.1c-.9-2.8-1.1-6.5-1.1-10.1V65.9h.2zM444.6 82.4c-5.3 0-8.6-3.2-8.6-11.1 0-6.8 2.4-10.9 6.3-10.9 2 0 2.7.4 3 2.5.4 2.6 1.4 4 3.5 4 2.4 0 3.7-1.5 3.7-3.8 0-3.2-2.9-6.3-9.9-6.3-7.4 0-14.6 5.9-14.6 16.5 0 9.5 5.5 15.2 13.6 15.2 6.9 0 10.3-4.7 11.2-8.3l-.1-.4c-1.7 1.6-4.8 2.6-8.1 2.6zM471.6 82.5c-5.3 0-9.2-3-9.2-10.5v-.9h17.8c0-9.4-3.6-14.3-11.5-14.3-8.2 0-14.3 6.7-14.3 16.7 0 9.9 6.4 15 14.2 15 6.7 0 10.4-4.3 11.6-8.8l-.2-.5c-1.4 1.4-3.6 3.3-8.4 3.3zm-3.2-22c3.4 0 4.1 2.9 4.2 7.7l-10.2.8c.5-5.8 2.6-8.5 6-8.5z"/></svg>